<svg width="3461" height="2183" viewBox="0 0 3461 2183" fill="none" xmlns="http://www.w3.org/2000/svg">
<g filter="url(#filter0_d_1907_11)">
<path d="M291.4 1091C291.4 1109.4 295.533 1125.53 303.8 1139.4C312.333 1153 323.4 1163.53 337 1171C350.6 1178.2 365.4 1181.8 381.4 1181.8C394.733 1181.8 406.6 1180.07 417 1176.6C427.4 1173.13 436.733 1168.47 445 1162.6C453.533 1156.73 460.867 1150.33 467 1143.4V1207.8C455.533 1216.87 443 1223.93 429.4 1229C416.067 1234.07 399.133 1236.6 378.6 1236.6C357.267 1236.6 337.4 1233.13 319 1226.2C300.867 1219.27 285 1209.27 271.4 1196.2C258.067 1183.13 247.667 1167.8 240.2 1150.2C233 1132.33 229.4 1112.6 229.4 1091C229.4 1069.4 233 1049.8 240.2 1032.2C247.667 1014.33 258.067 998.867 271.4 985.8C285 972.733 300.867 962.733 319 955.8C337.4 948.867 357.267 945.4 378.6 945.4C399.133 945.4 416.067 947.933 429.4 953C443 958.067 455.533 965.133 467 974.2V1038.6C460.867 1031.67 453.533 1025.27 445 1019.4C436.733 1013.53 427.4 1008.87 417 1005.4C406.6 1001.93 394.733 1000.2 381.4 1000.2C365.4 1000.2 350.6 1003.93 337 1011.4C323.4 1018.6 312.333 1029 303.8 1042.6C295.533 1056.2 291.4 1072.33 291.4 1091ZM568.686 1091C568.686 1108.87 572.419 1124.73 579.886 1138.6C587.352 1152.47 597.619 1163.4 610.686 1171.4C623.752 1179.4 638.952 1183.4 656.286 1183.4C673.619 1183.4 688.819 1179.4 701.886 1171.4C714.952 1163.4 725.086 1152.47 732.286 1138.6C739.752 1124.73 743.486 1108.87 743.486 1091C743.486 1073.13 739.886 1057.27 732.686 1043.4C725.486 1029.53 715.352 1018.6 702.286 1010.6C689.219 1002.6 673.886 998.6 656.286 998.6C638.952 998.6 623.752 1002.6 610.686 1010.6C597.619 1018.6 587.352 1029.53 579.886 1043.4C572.419 1057.27 568.686 1073.13 568.686 1091ZM508.286 1091C508.286 1069.67 512.019 1050.2 519.486 1032.6C526.952 1014.73 537.352 999.267 550.686 986.2C564.019 973.133 579.619 963.133 597.486 956.2C615.619 949 635.219 945.4 656.286 945.4C677.619 945.4 697.219 949 715.086 956.2C732.952 963.133 748.552 973.133 761.886 986.2C775.486 999.267 785.886 1014.73 793.086 1032.6C800.552 1050.2 804.286 1069.67 804.286 1091C804.286 1112.07 800.552 1131.67 793.086 1149.8C785.886 1167.67 775.619 1183.27 762.286 1196.6C749.219 1209.93 733.619 1220.33 715.486 1227.8C697.619 1235 677.886 1238.6 656.286 1238.6C634.686 1238.6 614.819 1235 596.686 1227.8C578.819 1220.33 563.219 1209.93 549.886 1196.6C536.552 1183.27 526.286 1167.67 519.086 1149.8C511.886 1131.67 508.286 1112.07 508.286 1091ZM910.474 1073.8L892.474 1231H832.874L874.474 937L991.674 1117.8L1108.87 937L1150.47 1231H1090.87L1072.87 1073.8L991.674 1205L910.474 1073.8ZM1195.73 951H1253.73V1231H1195.73V951ZM1513.66 951H1568.86V1245L1369.66 1057.4V1231H1314.46V937L1513.66 1124.6V951ZM1766.06 1127V1081.4H1904.06C1904.86 1102.73 1902.33 1122.87 1896.46 1141.8C1890.86 1160.73 1881.93 1177.53 1869.66 1192.2C1857.66 1206.6 1842.73 1217.93 1824.86 1226.2C1807 1234.47 1786.6 1238.6 1763.66 1238.6C1742.06 1238.6 1722.06 1235 1703.66 1227.8C1685.53 1220.6 1669.66 1210.47 1656.06 1197.4C1642.73 1184.33 1632.33 1168.73 1624.86 1150.6C1617.66 1132.47 1614.06 1112.6 1614.06 1091C1614.06 1069.4 1617.8 1049.67 1625.26 1031.8C1633 1013.67 1643.66 998.2 1657.26 985.4C1670.86 972.6 1686.86 962.733 1705.26 955.8C1723.66 948.867 1743.66 945.4 1765.26 945.4C1784.46 945.4 1801.66 948.067 1816.86 953.4C1832.33 958.733 1845.93 966.2 1857.66 975.8C1869.66 985.133 1879.93 996.333 1888.46 1009.4L1839.66 1037.8C1832.73 1025.53 1823 1015.67 1810.46 1008.2C1798.2 1000.47 1783.13 996.6 1765.26 996.6C1748.46 996.6 1733.13 1000.47 1719.26 1008.2C1705.4 1015.67 1694.33 1026.47 1686.06 1040.6C1678.06 1054.73 1674.06 1071.53 1674.06 1091C1674.06 1110.2 1678.06 1127.13 1686.06 1141.8C1694.06 1156.2 1704.86 1167.4 1718.46 1175.4C1732.33 1183.4 1747.93 1187.4 1765.26 1187.4C1776.73 1187.4 1787 1185.93 1796.06 1183C1805.13 1179.8 1812.86 1175.4 1819.26 1169.8C1825.93 1164.2 1831.53 1157.8 1836.06 1150.6C1840.6 1143.4 1844.06 1135.53 1846.46 1127H1766.06ZM2095.83 1137C2101.69 1147.4 2108.09 1156.47 2115.03 1164.2C2122.23 1171.93 2130.09 1177.93 2138.63 1182.2C2147.16 1186.47 2156.36 1188.6 2166.23 1188.6C2177.69 1188.6 2187.03 1185.67 2194.23 1179.8C2201.43 1173.93 2205.03 1165.93 2205.03 1155.8C2205.03 1147 2202.76 1139.93 2198.23 1134.6C2193.96 1129.27 2187.43 1124.6 2178.63 1120.6C2170.09 1116.33 2159.56 1111.8 2147.03 1107C2140.36 1104.6 2132.63 1101.4 2123.83 1097.4C2115.29 1093.13 2107.16 1087.8 2099.43 1081.4C2091.69 1074.73 2085.29 1066.73 2080.23 1057.4C2075.16 1047.8 2072.63 1036.33 2072.63 1023C2072.63 1007 2076.63 993.267 2084.63 981.8C2092.89 970.067 2103.96 961.133 2117.83 955C2131.96 948.6 2147.69 945.4 2165.03 945.4C2182.89 945.4 2198.23 948.467 2211.03 954.6C2224.09 960.467 2234.89 968.067 2243.43 977.4C2252.23 986.467 2259.03 995.933 2263.83 1005.8L2219.03 1030.6C2215.29 1023.93 2210.76 1017.93 2205.43 1012.6C2200.36 1007 2194.49 1002.6 2187.83 999.4C2181.16 995.933 2173.56 994.2 2165.03 994.2C2153.83 994.2 2145.43 996.867 2139.83 1002.2C2134.23 1007.27 2131.43 1013.27 2131.43 1020.2C2131.43 1027.13 2133.69 1033.27 2138.23 1038.6C2142.76 1043.67 2149.69 1048.6 2159.03 1053.4C2168.36 1057.93 2180.09 1062.6 2194.23 1067.4C2203.29 1070.6 2211.96 1074.6 2220.23 1079.4C2228.76 1084.2 2236.36 1090.07 2243.03 1097C2249.96 1103.67 2255.29 1111.67 2259.03 1121C2263.03 1130.07 2265.03 1140.6 2265.03 1152.6C2265.03 1166.2 2262.36 1178.33 2257.03 1189C2251.69 1199.67 2244.36 1208.73 2235.03 1216.2C2225.69 1223.4 2215.16 1228.87 2203.43 1232.6C2191.96 1236.6 2179.83 1238.6 2167.03 1238.6C2149.96 1238.6 2133.96 1235.4 2119.03 1229C2104.36 1222.33 2091.56 1213.4 2080.63 1202.2C2069.69 1191 2061.16 1178.87 2055.03 1165.8L2095.83 1137ZM2356.43 1091C2356.43 1108.87 2360.17 1124.73 2367.63 1138.6C2375.1 1152.47 2385.37 1163.4 2398.43 1171.4C2411.5 1179.4 2426.7 1183.4 2444.03 1183.4C2461.37 1183.4 2476.57 1179.4 2489.63 1171.4C2502.7 1163.4 2512.83 1152.47 2520.03 1138.6C2527.5 1124.73 2531.23 1108.87 2531.23 1091C2531.23 1073.13 2527.63 1057.27 2520.43 1043.4C2513.23 1029.53 2503.1 1018.6 2490.03 1010.6C2476.97 1002.6 2461.63 998.6 2444.03 998.6C2426.7 998.6 2411.5 1002.6 2398.43 1010.6C2385.37 1018.6 2375.1 1029.53 2367.63 1043.4C2360.17 1057.27 2356.43 1073.13 2356.43 1091ZM2296.03 1091C2296.03 1069.67 2299.77 1050.2 2307.23 1032.6C2314.7 1014.73 2325.1 999.267 2338.43 986.2C2351.77 973.133 2367.37 963.133 2385.23 956.2C2403.37 949 2422.97 945.4 2444.03 945.4C2465.37 945.4 2484.97 949 2502.83 956.2C2520.7 963.133 2536.3 973.133 2549.63 986.2C2563.23 999.267 2573.63 1014.73 2580.83 1032.6C2588.3 1050.2 2592.03 1069.67 2592.03 1091C2592.03 1112.07 2588.3 1131.67 2580.83 1149.8C2573.63 1167.67 2563.37 1183.27 2550.03 1196.6C2536.97 1209.93 2521.37 1220.33 2503.23 1227.8C2485.37 1235 2465.63 1238.6 2444.03 1238.6C2422.43 1238.6 2402.57 1235 2384.43 1227.8C2366.57 1220.33 2350.97 1209.93 2337.63 1196.6C2324.3 1183.27 2314.03 1167.67 2306.83 1149.8C2299.63 1131.67 2296.03 1112.07 2296.03 1091ZM2681.02 1091C2681.02 1108.87 2684.75 1124.73 2692.22 1138.6C2699.69 1152.47 2709.95 1163.4 2723.02 1171.4C2736.09 1179.4 2751.29 1183.4 2768.62 1183.4C2785.95 1183.4 2801.15 1179.4 2814.22 1171.4C2827.29 1163.4 2837.42 1152.47 2844.62 1138.6C2852.09 1124.73 2855.82 1108.87 2855.82 1091C2855.82 1073.13 2852.22 1057.27 2845.02 1043.4C2837.82 1029.53 2827.69 1018.6 2814.62 1010.6C2801.55 1002.6 2786.22 998.6 2768.62 998.6C2751.29 998.6 2736.09 1002.6 2723.02 1010.6C2709.95 1018.6 2699.69 1029.53 2692.22 1043.4C2684.75 1057.27 2681.02 1073.13 2681.02 1091ZM2620.62 1091C2620.62 1069.67 2624.35 1050.2 2631.82 1032.6C2639.29 1014.73 2649.69 999.267 2663.02 986.2C2676.35 973.133 2691.95 963.133 2709.82 956.2C2727.95 949 2747.55 945.4 2768.62 945.4C2789.95 945.4 2809.55 949 2827.42 956.2C2845.29 963.133 2860.89 973.133 2874.22 986.2C2887.82 999.267 2898.22 1014.73 2905.42 1032.6C2912.89 1050.2 2916.62 1069.67 2916.62 1091C2916.62 1112.07 2912.89 1131.67 2905.42 1149.8C2898.22 1167.67 2887.95 1183.27 2874.62 1196.6C2861.55 1209.93 2845.95 1220.33 2827.82 1227.8C2809.95 1235 2790.22 1238.6 2768.62 1238.6C2747.02 1238.6 2727.15 1235 2709.02 1227.8C2691.15 1220.33 2675.55 1209.93 2662.22 1196.6C2648.89 1183.27 2638.62 1167.67 2631.42 1149.8C2624.22 1131.67 2620.62 1112.07 2620.62 1091ZM3160.41 951H3215.61V1245L3016.41 1057.4V1231H2961.21V937L3160.41 1124.6V951Z" fill="black"/>
</g>
<defs>
<filter id="filter0_d_1907_11" x="-4" y="0" width="3469" height="2191" filterUnits="userSpaceOnUse" color-interpolation-filters="sRGB">
<feFlood flood-opacity="0" result="BackgroundImageFix"/>
<feColorMatrix in="SourceAlpha" type="matrix" values="0 0 0 0 0 0 0 0 0 0 0 0 0 0 0 0 0 0 127 0" result="hardAlpha"/>
<feOffset dy="4"/>
<feGaussianBlur stdDeviation="2"/>
<feComposite in2="hardAlpha" operator="out"/>
<feColorMatrix type="matrix" values="0 0 0 0 0 0 0 0 0 0 0 0 0 0 0 0 0 0 0.25 0"/>
<feBlend mode="normal" in2="BackgroundImageFix" result="effect1_dropShadow_1907_11"/>
<feBlend mode="normal" in="SourceGraphic" in2="effect1_dropShadow_1907_11" result="shape"/>
</filter>
</defs>
</svg>
